<svg width="865" height="865" viewBox="0 0 865 865" fill="none" xmlns="http://www.w3.org/2000/svg">
<path d="M420.334 0.168528C659.227 -6.43856 858.153 182.047 864.422 420.947C870.69 659.849 681.921 858.505 443.014 864.439C204.582 870.355 6.40775 682.047 0.151694 443.628C-6.10436 205.204 181.921 6.76257 420.334 0.168528Z" fill="url(#paint0_linear_4112_372)"/>
<path d="M806.162 619.857C708.515 813.307 479.114 899.918 277.981 819.27C76.8486 738.623 -29.1694 517.521 33.8805 310.196C96.9305 102.873 308.095 -21.7688 520.072 23.2159C732.048 68.2006 874.391 267.862 847.804 482.921C848.37 483.195 848.844 483.196 848.918 483.874C849.144 485.962 848.278 488.076 848 490.347C845.016 514.676 839.531 539.101 832.083 562.416C831.057 565.639 830.026 568.436 829.421 571.764L827.403 573.291C826.942 575.157 826.707 574.144 827.329 575.714L828.325 575.118L828.93 575.662L827.877 575.305L828.708 576.14L825.885 583.261C824.628 583.548 825.285 583.5 823.788 582.804C824.306 586.406 825.537 582.535 824.919 586.336L824.11 586.55L823.236 585.11C819.769 589.99 809.568 618.8 806.719 620.766L806.162 619.857Z" fill="#F9FAFA"/>
<path d="M847.806 482.922C848.371 483.196 848.845 483.196 848.919 483.875C849.146 485.962 848.28 488.077 848.002 490.347C845.018 514.676 839.532 539.101 832.085 562.417C831.059 565.64 830.028 568.437 829.423 571.765L827.405 573.291C826.944 575.158 826.709 574.144 827.331 575.714L828.327 575.118L828.932 575.662L827.879 575.305L828.71 576.141L825.887 583.261C824.63 583.549 825.286 583.501 823.79 582.805C824.308 586.406 825.539 582.535 824.921 586.337L824.112 586.55L823.237 585.11C819.771 589.991 809.57 618.8 806.721 620.766L806.164 619.857C827.822 576.95 841.912 530.623 847.806 482.922Z" fill="url(#paint1_linear_4112_372)"/>
<path d="M110.859 190.492C118.448 178.452 136.434 158.271 146.567 147.962C200.835 92.1084 270.039 53.0644 345.909 35.4968C449.746 11.5731 558.846 30.5614 648.498 88.1608C738.367 145.729 802.033 236.292 825.784 340.344C848.982 443.115 831.543 559.027 774.833 648.383C772.171 652.551 769.491 656.705 766.785 660.846C757.242 657.344 746.932 654.808 737.067 652.251C719.667 647.688 702.15 643.594 684.533 639.966C667.011 636.199 649.429 632.719 631.794 629.535C610.245 625.977 588.6 623.032 566.885 620.701C548.167 618.347 529.397 616.372 510.597 614.78C470.208 611.962 429.68 611.653 389.247 613.858C376.08 614.611 359.333 615.411 346.301 617.016C355.809 609.056 357.81 604.536 359.163 592.322C357.245 579.611 353.091 573.252 342.225 566.518C334.493 563.521 331.239 562.294 322.841 564.491C314.49 566.679 307.975 571.786 303.701 579.32C299.727 586.236 298.721 594.471 300.913 602.14C303.53 611.048 308.362 615.202 316.054 619.27C311.777 619.813 307.23 620.096 302.918 620.44C253.147 624.402 203.471 634.616 155.028 646.574C137.557 650.889 119.366 656.996 101.928 662.064C59.1392 598.564 36.3757 533.667 30.0178 457.231C23.7078 359.157 53.2577 269.484 110.859 190.492Z" fill="url(#paint2_linear_4112_372)"/>
<path d="M345.289 566.046C347.294 565.18 376.93 565.698 380.954 566.028C381.076 575.676 381.054 585.325 380.893 594.968C377.283 595.081 364.629 595.634 362.027 594.412L361.479 595.586L360.601 595.904C359.7 594.742 359.831 593.755 359.165 592.319C357.247 579.609 353.093 573.249 342.227 566.516C343.719 565.898 343.649 565.976 345.289 566.046Z" fill="#F9FAFA"/>
<path d="M342.227 566.516C343.719 565.899 343.649 565.977 345.289 566.046C356.025 571.754 361.17 582.654 362.027 594.412L361.479 595.587L360.601 595.904C359.7 594.743 359.831 593.755 359.165 592.32C357.247 579.609 353.093 573.25 342.227 566.516Z" fill="url(#paint3_linear_4112_372)"/>
<path d="M110.859 190.492L111.816 191.186C107.523 199.416 99.6644 206.623 96.0487 215.342C94.3823 219.36 89.4617 221.92 88.3311 227.31C88.4764 226.618 81.818 238.527 81.4683 239.151L82.5944 240.731C81.4917 242.855 80.7488 244.612 79.1371 246.381C77.8813 246.149 78.4433 246.352 77.4302 245.831L77.5098 246.624C77.7278 249.035 78.0349 249.702 76.8417 251.592L76.2509 251.753L75.7777 250.109C73.6441 252.995 72.4587 256.878 70.55 259.903C68.325 263.429 67.9291 262.784 69.4633 266.713C68.873 268.395 69.4151 267.832 68.1497 268.738C67.6325 267.677 67.8256 267.59 67.0731 267.089C65.963 268.164 63.1181 276.296 62.547 278.115L63.2081 278.19L63.4687 276.858L64.2782 277.19L64.5236 278.332L63.2129 280.322L62.5452 280.283L61.7818 279.211C60.8135 280.368 59.3707 284.15 59.412 285.688L60.8057 284.294C61.9323 286.978 59.2567 289.633 58.5529 292.42L57.5154 292.716C56.9295 292.041 57.0143 292.381 56.9756 291.813L56.5132 291.35C55.8498 293.606 54.0816 297.564 54.3595 299.308L55.3879 299.785C55.3692 301.653 53.0024 305.56 51.9954 307.519L51.4072 306.167L51.1928 306.351L52.2511 307.111L50.9209 306.754C49.3772 310.102 49.395 312.043 49.4428 315.737C48.6659 316.5 48.334 316.801 47.468 317.457C47.1622 319.49 47.3701 320.098 47.7059 322.084L46.9012 323.679L46.1647 322.832C45.2608 327.78 45.0246 329.195 43.1389 334.084C42.0989 336.781 41.613 342.628 41.2693 345.612L41.0557 343.402L40.7117 351.397C37.5863 351.954 37.9777 353.441 38.0091 356.408L38.4367 356.861L37.9443 356.478L38.9051 356.291L39.237 355.721C39.622 355.077 39.4128 355.268 39.7921 354.994L38.8543 356.243L39.7577 356.969C39.6351 357.574 39.485 358.309 39.3079 359.175C37.1891 359.845 35.9341 362.842 36.6249 365.325L37.8238 364.79C38.8804 366.944 37.0925 367.213 37.9329 369.249H36.9886C36.6267 368.514 36.2756 367.77 35.9355 367.026C33.4447 376.366 36.6341 377.583 35.6392 382.703L34.5831 383.099C34.3712 382.612 33.9519 381.364 33.6196 381.168C32.7365 386.079 33.423 391.886 32.6365 396.627L32.5464 395.597C29.8882 414.427 29.7507 437.765 31.6464 456.878C31.7526 457.948 31.6699 457.805 31.3419 458.875C30.9083 458.318 30.4685 457.774 30.0178 457.231C23.7078 359.157 53.2577 269.484 110.859 190.492Z" fill="url(#paint4_linear_4112_372)"/>
<path d="M196.247 483.243C212.542 479.315 225.374 472.468 240.877 466.391C261.728 458.218 281.985 459.892 302.779 459.309C337.587 458.331 353.158 473.956 383.29 485.74C400.037 492.282 427.32 491.825 444.176 501.799C448.012 503.726 451.384 509.856 452.284 513.997C453.493 519.556 451.714 527.969 449.909 533.367C443.497 533.828 438.351 533.667 431.935 533.38C431.439 524.349 431.87 517.037 424.349 510.378C419.808 506.354 413.709 504.857 407.719 505.514C401.438 506.162 395.696 509.364 391.838 514.366C386.944 520.661 385.978 527.051 385.978 534.715C344.284 535.398 301.768 534.098 260.282 534.915C261.138 527.386 260.576 521.422 255.756 515.11C244.312 500.116 217.597 507.159 215.927 526.198C215.721 528.547 215.673 530.048 216.778 532.184L216.967 531.753L217.258 532.058C217.624 531.209 217.501 531.54 217.787 530.692L217.979 530.104L218.645 530.448L219.287 530.217L218.975 531.061C220.269 526.176 220.171 525.559 222.398 520.656L223.413 520.848C227.884 517.981 226.458 513.596 235.801 512.413C249.927 510.625 259.261 524.332 253.786 536.921C252.842 539.087 250.422 541.901 248.889 543.759L249.045 544.368C254.666 543.746 262.971 543.994 268.891 543.998L301.663 544.007C334.875 544.024 368.957 543.707 402.103 544.22C395.23 539.618 390.672 533.088 393.09 524.497C394.33 520.117 397.271 516.411 401.259 514.21C415.988 506.154 430.478 519.417 425.354 535.229C423.709 540.292 419.338 542.497 414.962 544.768C429.412 544.055 445.407 544.524 460.057 544.359C465.016 525.998 468.031 504.814 473.238 485.618C471.402 484.548 469.853 483.878 468.592 482.203C469.075 479.676 476.396 465.273 478.449 462.981C483.486 462.659 487.827 461.432 492.355 463.129C493.652 464.851 493.208 464.647 493.286 467.309C492.086 467.948 491.768 467.792 491.503 468.597C491.712 484.413 491.133 501.504 490.994 517.472C490.876 530.818 491.181 547.865 490.411 560.924L244.142 560.223C215.905 560.097 186.776 560.793 158.703 560.275C161.424 553.116 164.294 549.244 169.61 543.654C172.659 543.794 177.434 544.229 180.24 543.576C181.299 542.567 181.37 541.875 181.861 540.475C182.84 539.635 204.723 532.479 208.069 530.957C203.15 530.531 197.581 530.7 194.159 526.529C190.856 522.505 191.682 513.335 192.25 508.298L195.731 505.366C195.684 498.833 195.362 489.541 196.247 483.243Z" fill="#F9FAFA"/>
<path d="M216.776 532.184L216.965 531.753L217.255 532.057C217.621 531.209 217.498 531.54 217.785 530.692L217.977 530.104L218.642 530.448L219.284 530.217L218.972 531.061C220.266 526.176 220.168 525.559 222.395 520.656L223.411 520.848C219.95 532.005 222.117 537.164 231.419 544.076C225.837 543.981 191.575 544.807 189.656 543.302C192.318 540.018 212.974 535.65 216.776 532.184Z" fill="url(#paint5_linear_4112_372)"/>
<path d="M493.288 467.314C492.088 467.953 491.77 467.797 491.505 468.601C488.599 468.88 481.687 468.249 478.703 467.997L478.777 467.684C484.228 466.975 487.838 467.162 493.288 467.314Z" fill="url(#paint6_linear_4112_372)"/>
<path d="M299.984 463.461C324.932 463.522 337.924 468.885 359.456 480.8C364.159 483.405 370.592 486.781 374.755 489.921L366.429 490.017C365.124 489.882 365.738 490.087 364.598 489.391C364.046 485.885 362.188 481.857 357.795 482.153C354.324 482.387 355.785 486.803 353.802 488.799C347.633 489.03 339.26 488.46 332.907 488.225C324.099 487.899 314.35 487.773 305.636 486.981C303.241 479.334 301.55 471.313 299.984 463.461Z" fill="url(#paint7_linear_4112_372)"/>
<path d="M284.013 463.791C286.734 463.548 289.836 463.578 292.595 463.539C293.536 470.699 295.442 479.521 296.814 486.742L270.894 485.484C265.989 485.345 261.118 484.936 256.227 484.571C256.723 478.807 257.361 473.052 258.141 467.319C266.244 465.266 275.65 464.496 284.013 463.791Z" fill="url(#paint8_linear_4112_372)"/>
<path d="M253.231 468.43C253.751 469.543 251.689 482.088 251.457 484.255C247.355 483.846 244.027 483.385 239.958 482.697C237.915 481.488 237.777 481.175 237.954 479.013C240.618 474.293 248.312 470.944 253.231 468.43Z" fill="url(#paint9_linear_4112_372)"/>
<path d="M430.25 502.839C434.917 502.204 443.013 502.865 446.523 506.41C447.684 507.576 447.376 508.946 447.332 510.412C444.074 510.639 440.851 510.243 437.588 509.973C435.248 508.281 430.829 505.506 430.25 502.839Z" fill="url(#paint10_linear_4112_372)"/>
<path d="M500.355 469.192C523.088 469.057 545.82 469.105 568.553 469.335C577.296 485.839 585.213 503.691 593.909 519.773C608.751 523.705 623.149 528.594 638.243 531.583C641.94 532.318 646.986 533.401 650.423 534.667C651.123 540.165 651.645 546.664 651.501 552.21L636.803 553.015C635.12 558.648 635.085 561.997 635.094 567.892C640.318 568.231 656.852 567.265 655.878 574.373C655.008 580.667 657.304 601.316 652.846 605.205C650.14 606.227 633.728 607.928 633.497 602.926C633.067 593.621 635.646 584.073 627.821 576.387C627.716 576.918 627.838 576.683 627.425 577.079L626.12 576.113L624.71 576.957C631.792 587.81 630.874 602.034 622.448 611.887C614.027 621.735 600.12 624.854 588.297 619.547C576.474 614.236 569.566 601.769 571.332 588.928C570.502 587.484 570.636 587.518 569.401 586.461C568.557 590.133 568.879 596.923 567.561 598.428C565.147 598.245 566.165 598.658 564.32 597.34C562.589 594.008 563.785 589.041 564.273 585.174L563.72 585.065C563.564 583.93 563.442 583.369 563.159 582.255L563.05 582.338C562.089 580.759 562.415 580.863 562.341 578.727C563.107 576.757 564.164 574.395 563.668 572.407L562.15 571.65C559.314 571.084 543.31 571.376 539.861 571.389C525.293 571.467 510.721 571.432 496.148 571.284C496.47 571.276 497.101 571.289 497.336 571.145C500.033 569.527 506.532 570.136 510.595 569.979C523.118 569.449 535.654 569.227 548.191 569.314C553.037 569.318 562.085 569.792 566.247 569.475L566.956 569.418C562.763 567.409 509.285 568.479 499.82 568.239L500.089 499.959C500.146 490.211 499.959 478.814 500.355 469.192Z" fill="#F9FAFA"/>
<path d="M571.336 588.928C572.998 576.857 581.981 567.087 593.869 564.42C605.762 561.754 618.054 566.752 624.714 576.957C631.796 587.81 630.878 602.034 622.452 611.887C614.031 621.735 600.124 624.854 588.301 619.547C576.478 614.236 569.57 601.769 571.336 588.928Z" fill="#F9FAFA"/>
<path d="M596.94 576.635C602.391 575.3 608.137 577.001 611.982 581.089C615.828 585.178 617.176 591.02 615.506 596.379C613.84 601.739 609.416 605.784 603.931 606.967C595.609 608.759 587.392 603.539 585.478 595.248C583.569 586.953 588.675 578.662 596.94 576.635Z" fill="url(#paint11_linear_4112_372)"/>
<path d="M597.499 581.908C603.054 580.168 608.965 583.248 610.731 588.794C612.497 594.34 609.448 600.269 603.911 602.061C598.334 603.862 592.353 600.786 590.578 595.206C588.803 589.62 591.905 583.657 597.499 581.908Z" fill="#F9FAFA"/>
<path d="M566.956 569.42C572.742 558.762 580.589 552.198 592.095 547.074C592.664 546.822 593.795 546.857 594.435 546.891C602.039 552.168 585.47 554.8 582.668 556.335C572.033 562.177 566.382 573.648 564.273 585.175L563.72 585.066C563.564 583.931 563.442 583.37 563.159 582.256L563.05 582.339C562.089 580.76 562.415 580.864 562.341 578.728C563.107 576.758 564.164 574.396 563.668 572.408L562.15 571.651C559.314 571.086 543.31 571.377 539.861 571.39C525.293 571.468 510.721 571.434 496.148 571.286C496.47 571.277 497.101 571.29 497.336 571.147C500.033 569.528 506.532 570.137 510.595 569.981C523.118 569.45 535.654 569.228 548.191 569.315C553.037 569.32 562.085 569.794 566.247 569.476L566.956 569.42Z" fill="url(#paint12_linear_4112_372)"/>
<path d="M569.398 586.459C569.677 585.419 569.986 584.388 570.334 583.366C573.118 574.84 579.208 567.793 587.237 563.8C600.244 557.462 621.354 563.273 627.818 576.384C627.713 576.915 627.835 576.68 627.422 577.076L626.117 576.11L624.708 576.954C618.048 566.749 605.755 561.751 593.862 564.417C581.974 567.084 572.991 576.854 571.33 588.925C570.499 587.481 570.634 587.516 569.398 586.459Z" fill="url(#paint13_linear_4112_372)"/>
<path d="M518.452 480.738C533.264 480.555 548.08 480.455 562.891 480.438C568.42 490.025 577.415 509.295 582.083 519.704C578.364 519.809 563.783 520.726 561.551 519.06L561.36 517.168C561.277 512.283 563.256 502.944 558.132 501.034C551.538 501.569 552.638 514.393 552.295 519.843C539.789 520.113 527.274 520.057 514.768 519.678C514.52 509.095 513.576 494.135 515.177 483.726C515.46 481.89 517.03 481.408 518.452 480.738Z" fill="url(#paint14_linear_4112_372)"/>
<path d="M663.769 142.461C672.895 152.074 682.108 161.607 691.404 171.058C695.484 175.171 702.653 181.688 706.172 185.723C706.141 196.05 705.95 206.376 705.602 216.696C697.924 210.822 681.551 191.014 675.635 188.132L674.931 188.596C674.082 193.107 675.335 214.363 675.414 220.368C675.574 233.361 675.531 246.437 675.461 259.471C665.291 272.272 648.253 285.728 641.693 300.583C640.136 304.107 638.178 316.101 637.126 320.711L617.455 320.691C618.917 312.562 621.092 304.875 622.606 296.966C619.861 291.072 617.038 284.769 614.123 278.998C613.975 280.183 614.223 279.652 613.266 280.539C611.552 275.403 606.911 267.508 606.763 263.066L606.15 262.546L605.467 263.159L605.715 265.559L605.206 265.53C603.614 263.144 602.252 257.89 604.423 255.46C606.58 253.866 623.632 254.561 628.012 254.584C630.953 262.122 633.541 270.094 636.147 277.782C640.031 271.545 647.987 260.504 653.038 254.959C649.105 243.679 652.685 215.235 652.002 202.016C651.772 197.607 652.955 192.253 652.007 187.848L651.128 187.593C643.781 192.074 630.048 209.633 619.674 216.95C620.248 207.788 620.091 197.028 618.564 187.95C623.667 181.9 630.753 175.075 636.456 169.278C645.212 160.378 654.499 150.757 663.769 142.461Z" fill="#F9FAFA"/>
<path d="M604.423 255.461C607.516 261.466 611.196 272.266 614.123 278.999C613.975 280.184 614.223 279.653 613.266 280.54C611.552 275.404 606.911 267.508 606.763 263.066L606.15 262.547L605.467 263.16L605.715 265.56L605.206 265.531C603.614 263.145 602.252 257.891 604.423 255.461Z" fill="url(#paint15_linear_4112_372)"/>
<path d="M239.442 253.124C248.994 252.765 257.259 253.092 265.439 258.793C281.301 269.846 278.068 290.589 267.838 304.149C259.568 315.111 250.055 319.662 236.749 321.606C200.542 323.428 189.003 296.441 208.97 267.831C215.637 258.278 228.074 254.218 239.442 253.124Z" fill="#F9FAFA"/>
<path d="M241.343 268.422C262.153 269.026 254.628 301.258 235.969 305.948C219.131 305.826 220.364 290.296 226.632 279.126C230.088 272.966 234.628 270.001 241.343 268.422Z" fill="url(#paint16_linear_4112_372)"/>
<path d="M486.517 254.82C492.907 254.769 499.293 254.845 505.678 255.047C506.1 267.389 506.274 279.74 506.192 292.089C510.798 280.727 518.202 265.985 523.735 255.004C530.486 254.872 537.82 255.073 544.61 255.136C541.056 262.289 537.428 269.406 533.722 276.484C525.901 291.207 518.632 306.069 510.916 320.69L492.72 320.765C491.719 307.852 489.114 294.783 488.213 282.015C483.855 292.561 476.247 310.94 471.479 320.842L451.861 320.616C450.891 312.884 450.508 303.614 449.873 295.746C448.777 282.221 447.811 268.593 447.594 255.029C454.454 254.99 461.313 255.053 468.173 255.216C468.391 267.408 468.956 280.36 468.526 292.452C474.75 280.098 480.205 266.766 486.517 254.82Z" fill="#F9FAFA"/>
<path d="M466.659 295.009C469.591 294.661 475.724 294.197 477.977 296.029C479.017 300.834 468.716 310.318 464.497 312.277C462.635 312.91 461.347 313.531 459.39 313.428C456.771 310.745 453.222 298.378 455.732 295.527C458.52 294.808 463.592 295.01 466.659 295.009Z" fill="#F9FAFA"/>
<path d="M289.306 254.052C296.339 253.898 303.267 253.757 310.302 254.028C316.214 266.603 321.509 280.985 327.579 293.022C329.263 280.664 333.17 266.725 336.456 254.61L356.88 255.039C352.182 275.486 346.77 300.529 341.29 320.763L322.561 320.937C318.129 314.031 315.927 308.608 312.753 301.037C311.994 299.226 309.069 292.395 308.082 291.026C304.585 291.181 309.146 290.417 303.655 288.677C302.717 287.119 303.069 284.846 303.14 282.915C299.617 294.148 297.99 309.248 295.114 321.103C287.651 320.883 280.185 320.76 272.719 320.733C276.84 302.188 282.141 283.68 286.382 265.134C287.174 261.672 288.224 257.429 289.306 254.052Z" fill="#F9FAFA"/>
<path d="M303.147 282.918L303.534 281.914C305.059 282.774 307.331 289.116 308.089 291.029C304.592 291.184 309.153 290.42 303.662 288.68C302.724 287.122 303.076 284.849 303.147 282.918Z" fill="url(#paint17_linear_4112_372)"/>
<path d="M284.93 295.292C286.894 295.258 289.812 294.965 291.264 296.125C291.566 300.084 286.847 311.39 283.99 314.291C282.802 314.79 281.71 315.181 280.505 315.62L279.769 315.215C279.164 311.868 282.403 297.263 284.93 295.292Z" fill="#F9FAFA"/>
<path d="M433.25 565.795C446.818 565.747 461.459 565.495 474.992 565.891C475.571 567.935 476.149 570.176 476.815 572.176L531.567 572.098C539.514 572.085 554.783 572.485 562.147 571.65L563.665 572.407C564.161 574.395 563.104 576.757 562.338 578.727C560.946 585.03 560.355 589.119 560.224 595.553C518.052 594.587 473.235 596.767 431.323 594.914C431.171 586.144 431.214 577.37 431.454 568.601C431.932 567.483 432.537 566.791 433.25 565.795Z" fill="#F9FAFA"/>
<path d="M366.098 254.703L423.312 255.09C422.107 260.528 420.985 265.45 419.497 270.834C408.357 270.21 395.651 270.485 384.215 270.103C383.436 272.73 383.027 275.172 382.519 277.854C392.871 278.136 403.494 278.131 413.868 278.244C412.703 283.344 411.876 288.768 410.998 293.944C401.863 293.874 388.83 292.992 379.565 293.904C378.752 293.984 378.669 294.847 378.19 295.918C377.368 298.876 376.807 301.777 376.198 304.782C388.187 304.818 400.479 304.705 412.437 305.216C411.559 310.632 410.793 315.391 409.514 320.751L349.859 320.578C355.11 299.359 360.073 275.33 366.098 254.703Z" fill="#F9FAFA"/>
<path d="M564.922 254.949C572.818 254.837 580.713 254.84 588.608 254.958C590.857 264.39 592.605 275.83 594.297 285.462C596.464 297.201 598.543 308.955 600.535 320.725L577.981 320.673L576.25 308.74C571.36 308.593 566.232 308.63 561.325 308.588L551.807 308.612L545.196 320.296L523.172 320.215C528.892 309.602 535.917 299.578 542.577 289.474C549.954 278.285 557.24 265.779 564.922 254.949Z" fill="#F9FAFA"/>
<path d="M571.051 275.352L571.869 275.774C572.774 277.537 573.9 291.692 574.166 294.587L564.518 294.388C563.347 294.382 562.973 294.27 561.812 294.08C561.394 292.491 569.79 277.688 571.051 275.352Z" fill="url(#paint18_linear_4112_372)"/>
<path d="M408.809 339.391C434.121 338.434 439.25 359.44 426.5 377.722C421.137 385.409 413.155 388.21 404.072 389.454C379.33 389.82 371.861 370.019 385.802 350.809C391.201 343.371 399.748 340.243 408.809 339.391Z" fill="#F9FAFA"/>
<path d="M406.243 352.037C424.199 350.497 417.222 372.777 405.399 378.645C390.3 379.916 393.193 357.618 406.243 352.037Z" fill="url(#paint19_linear_4112_372)"/>
<path d="M539.997 340.426C550.48 340.378 566.805 339.878 576.688 340.817C589.786 350.122 582.426 360.1 572.199 367.582C572.995 368.33 573.778 369.096 574.539 369.875C577.506 372.967 576.306 383.642 576.184 388.405C572.813 388.54 562.638 389.214 560.167 387.962L559.972 386.709C560.82 375.008 562.164 371.384 549.597 369.353C547.787 375.717 546.352 382.085 544.447 388.597L528.922 388.623C531.332 377.235 536.373 350.174 539.997 340.426Z" fill="#F9FAFA"/>
<path d="M553.394 351.336C559.205 351.414 573.347 350.784 564.83 360.44C560.358 361.336 555.438 361.08 550.836 361.054L553.394 351.336Z" fill="url(#paint20_linear_4112_372)"/>
<path d="M235.61 340.614C243.71 340.41 264.236 339.401 270.887 341.641C284.075 346.082 280.819 360.937 268.064 366.096C272.758 371.982 273.184 381.134 274.426 388.755C270.484 388.846 262.555 389.386 258.786 388.324C258.089 388.129 258.188 387.437 257.957 386.432C257.463 374.109 258.66 370.307 245.69 368.537C243.683 375.231 242.242 381.965 240.693 388.781L224.875 388.594C228.723 372.704 231.662 356.592 235.61 340.614Z" fill="#F9FAFA"/>
<path d="M249.922 351.848C254.487 351.739 258.098 351.156 262.072 353.322C264.005 356.346 261.716 358.016 259.455 360.082C255.361 361.296 251.244 360.691 247.023 360.326C247.802 357.564 248.951 354.575 249.922 351.848Z" fill="url(#paint21_linear_4112_372)"/>
<path d="M307.981 565.439C309.559 565.36 312.136 565.491 313.796 565.521C289.392 583.452 299.569 601.23 297.118 604.923C288.903 605.832 292.096 588.037 292.664 583.386C282.363 583.395 272.062 583.295 261.762 583.086C258.151 582.991 246.102 582.351 243.523 582.817C242.242 584.387 242.3 585.949 242.027 588.01C241.998 589.202 242.093 588.615 241.41 589.746C237.749 591.051 222.757 590.251 218.023 590.116L218.457 580.907L226.691 580.472L228.639 566.1C243.056 565.826 257.475 565.669 271.895 565.63C283.3 565.678 296.82 566.161 307.981 565.439Z" fill="#F9FAFA"/>
<path d="M492.939 340.477L534.159 340.711C533.28 344.448 531.993 348.58 530.918 352.308L506.35 352.247L504.788 358.772L527.712 359.242C526.964 362.387 526.068 365.645 525.246 368.786C519.386 368.738 509.212 368.086 503.583 369.143C502.922 369.264 502.809 370.204 502.483 371.074L500.982 377.486C509.495 377.651 518.012 377.768 526.529 377.838C525.733 381.383 525.054 385.281 524.358 388.878C510.286 388.656 496.18 389.07 482.086 388.604C483.639 380.283 490.129 346.693 492.939 340.477Z" fill="#F9FAFA"/>
<path d="M287.636 340.823C299.809 340.671 316.922 340.132 328.769 340.949C328.03 344.938 326.985 348.397 325.865 352.298L301.441 352.137L299.602 358.958L322.804 359.084C321.861 362.577 321.326 365.413 320.675 368.976C317.532 369.006 299.556 368.441 297.96 369.528L295.837 377.976C304.092 378.08 312.726 377.902 321.011 377.859L318.355 388.564C305.091 389.007 290.584 388.738 277.281 388.616C279.171 375.905 284.362 353.121 287.636 340.823Z" fill="#F9FAFA"/>
<path d="M210.42 329.291C229.009 328.172 253.571 328.92 272.675 328.935L375.392 328.637L535.404 328.341C573.614 328.173 611.893 328.219 650.103 327.993C652.304 327.98 654.27 328.252 656.306 329.096L656.38 329.826C652.334 332.121 621.619 331.39 614.516 331.443L535.822 331.773C479.882 332.239 423.942 332.343 368.002 332.095L262.357 332.226L227.705 332.247C224.264 332.226 208.35 332.734 206.523 330.412C207.89 329.255 208.27 329.581 210.42 329.291Z" fill="#F9FAFA"/>
<path d="M368.002 332.093L262.357 332.224L227.705 332.246C224.264 332.224 208.35 332.733 206.523 330.41C207.89 329.253 208.27 329.579 210.42 329.289C214.106 332.172 246.754 331.006 253.717 331.054L331.995 331.511C336.403 331.502 366.392 331.036 368.002 332.093Z" fill="#F9FAFA"/>
<path d="M381.617 565.567C381.108 564.915 380.156 564.784 379.203 564.449C382.509 560.908 429.841 560.804 431.802 562.744C430.576 563.162 429.597 563.405 428.353 563.736L428.188 564.362C429.754 564.419 431.807 564.036 432.872 564.493L433.251 565.789C432.537 566.785 431.933 567.477 431.454 568.595L430.45 569.782C428.509 569.634 429.393 569.921 427.722 568.816C427.792 577.438 427.987 586.438 427.818 595.025C414.559 595.238 397.729 595.425 384.545 594.568C384.545 591.614 384.736 585.546 384.484 582.836C382.7 584.946 385.11 592.541 382.431 595.064C382.196 594.825 381.961 594.581 381.726 594.342C381.665 588.265 381.63 570.291 381.617 565.567Z" fill="#F9FAFA"/>
<path d="M381.617 565.567C381.108 564.915 380.156 564.784 379.203 564.449C382.509 560.908 429.841 560.804 431.802 562.744C430.576 563.162 429.597 563.405 428.353 563.736L428.188 564.362C429.754 564.419 431.807 564.036 432.872 564.493L433.251 565.789C432.537 566.785 431.933 567.477 431.454 568.595L430.45 569.782C428.509 569.634 429.393 569.921 427.722 568.816C426.7 566.994 425.726 566.189 423.555 566.189C417.83 566.189 387.516 564.401 384.728 566.637L384.484 582.836C382.7 584.946 385.11 592.541 382.431 595.064C382.196 594.825 381.961 594.581 381.726 594.342C381.665 588.265 381.63 570.291 381.617 565.567Z" fill="url(#paint22_linear_4112_372)"/>
<path d="M436.031 340.345C441.486 340.298 446.941 340.35 452.396 340.493C453.592 350.272 455.145 359.872 456.15 369.703L456.933 371.995C462.692 362.948 469.369 350.337 475.054 340.637L488.8 340.767C480.222 356.531 469.082 372.226 459.96 388.656C454.71 388.73 449.12 388.612 443.844 388.586C442.761 375.058 438.519 354.313 436.031 340.345Z" fill="#F9FAFA"/>
<path d="M456.933 371.996C454.541 375.023 455.106 377.103 451.148 380.03C445.937 380.818 444.893 371.391 448.038 368.194C453.162 365.832 453.836 371.082 455.65 371.509L456.15 369.704L456.933 371.996Z" fill="#F9FAFA"/>
<path d="M638.917 339.992C639.304 340.044 639.687 340.097 640.074 340.144C639.896 343.229 618.22 364.004 615.493 370.607C612.339 378.245 612.382 380.394 610.973 388.516L596.631 388.429C597.823 382.848 599.119 377.288 600.507 371.755L598.928 367.997C595.091 358.714 590.663 349.601 586.766 340.11L603.53 340.275C605.74 345.264 608.215 352.363 610.186 357.57C614.109 353.155 619.877 345.177 623.823 340.223L638.917 339.992Z" fill="#F9FAFA"/>
<path d="M328.023 376.206C320.239 336.339 379.718 326.054 378.491 359.111L364.637 359.315C362.379 352.721 357.96 348.762 351.113 353.312C345.419 357.097 343.975 362.526 342.67 368.842C342.017 370.216 342.074 370.795 342.017 372.274L341.46 372.604C338.202 371.064 335.258 369.137 331.781 369.738C329.118 371.586 329.648 372.535 329.938 375.697L328.023 376.206Z" fill="#F9FAFA"/>
<path d="M329.938 375.699C329.649 372.537 329.118 371.589 331.781 369.74C335.259 369.14 338.203 371.067 341.461 372.606L342.018 372.276C342.074 370.797 342.018 370.218 342.67 368.844C343.923 383.995 355.041 379.806 361.936 370.662C366.49 371.423 370.54 371.876 375.142 372.354C370.64 380.393 366.064 386.274 356.525 388.732C348.412 390.824 340.839 389.889 333.89 385.117C330.667 381.954 329.639 380.402 328.023 376.208L329.938 375.699Z" fill="#F9FAFA"/>
<path d="M414.052 623.126C426.023 622.169 445.829 622.752 458.178 623.078C509.803 624.657 561.271 629.577 612.265 637.794C629.822 640.682 648.622 644.528 666.091 648.125C695.253 654.128 731.353 661.566 759.027 672.097C742.123 696.018 712.888 726.658 690.124 745.567C623.388 800.655 540.726 832.853 454.311 837.425C421.291 839.204 387.27 835.859 354.894 829.464C278.442 814.514 208.097 777.348 152.657 722.626C137.716 708.062 121.242 689.945 109.602 672.593C127.784 664.098 155.25 657.856 174.652 653.327C236.885 638.803 299.723 629.32 363.593 626.441C380.284 625.688 397.179 623.852 414.052 623.126Z" fill="url(#paint23_linear_4112_372)"/>
<path d="M564.664 653.344C579.723 656.38 602.4 660.425 616.698 664.179C616.298 667.272 615.771 670.474 615.301 673.567C613.244 673.888 570.55 665.758 564.912 664.793C564.986 660.73 564.877 657.411 564.664 653.344Z" fill="#F9FAFA"/>
<path d="M317.033 651.116C319.28 650.803 318.362 650.538 320.032 651.36C320.98 653.97 320.382 657.837 320.205 660.808C303.677 663.235 287.239 666.246 270.922 669.83C269.165 669.956 269.839 670.252 268.677 669.382C268.233 667.255 268.433 662.439 268.141 659.307C284.012 657.185 300.955 653.644 317.033 651.116Z" fill="#F9FAFA"/>
<path d="M671.435 673.43C676.741 674.556 688.117 678.367 693.61 680.102C702.306 682.843 714.516 686.245 722.694 689.733L720.184 696.776L719.723 697.654C717.687 698.272 676.62 686.14 671.195 684.618L671.435 673.43Z" fill="#F9FAFA"/>
<path d="M464.781 646.102C479.662 646.089 502.165 647.733 516.589 650.056C515.98 653.331 515.841 656.411 515.614 659.73C512.643 660.291 490.311 657.098 485.678 656.637C478.858 655.95 472.007 655.602 465.151 655.589C465.155 652.326 464.973 649.351 464.781 646.102Z" fill="#F9FAFA"/>
<path d="M204.325 669.562C205.245 669.584 204.76 669.445 205.664 670.272C206.19 673.725 206.042 676.035 205.948 679.519C189.821 683.043 175.338 687.519 159.507 692.208L158.36 692.126C157.106 690.49 157.489 685.335 157.504 682.952C173.682 678.441 187.635 673.356 204.325 669.562Z" fill="#F9FAFA"/>
<path d="M415.432 645.385L421.935 645.133C421.618 648.604 421.257 652.071 420.852 655.533C405.601 654.511 391.694 654.324 376.5 656.73C374.399 657.265 371.733 657.674 369.566 658.074C369.658 653.676 369.68 652.014 368.953 647.712C382.438 647.695 401.356 646.029 415.432 645.385Z" fill="#F9FAFA"/>
<path d="M326.374 577.496C334.737 575.748 342.944 581.072 344.762 589.42C346.576 597.767 341.322 606.019 332.987 607.902C324.556 609.812 316.188 604.479 314.351 596.036C312.514 587.588 317.913 579.262 326.374 577.496Z" fill="url(#paint24_linear_4112_372)"/>
<path d="M327.212 582.41C333.019 581.001 338.875 584.554 340.302 590.357C341.728 596.16 338.188 602.024 332.387 603.468C326.565 604.912 320.677 601.358 319.245 595.534C317.814 589.709 321.384 583.828 327.212 582.41Z" fill="#F9FAFA"/>
<path d="M379.242 5.70577C382.392 5.45652 386.807 7.79808 388.599 10.2292L387.872 11.5112L386.132 12.3672C382.309 11.4559 380.73 9.31838 379.242 5.70577Z" fill="url(#paint25_linear_4112_372)"/>
<defs>
<linearGradient id="paint0_linear_4112_372" x1="432.287" y1="0" x2="432.287" y2="864.574" gradientUnits="userSpaceOnUse">
<stop stop-color="#316BF9"/>
<stop offset="1" stop-color="#6390FF"/>
</linearGradient>
<linearGradient id="paint1_linear_4112_372" x1="827.56" y1="482.922" x2="827.56" y2="620.766" gradientUnits="userSpaceOnUse">
<stop stop-color="#316BF9"/>
<stop offset="1" stop-color="#6390FF"/>
</linearGradient>
<linearGradient id="paint2_linear_4112_372" x1="432.464" y1="25.3984" x2="432.464" y2="662.064" gradientUnits="userSpaceOnUse">
<stop stop-color="#316BF9"/>
<stop offset="1" stop-color="#6390FF"/>
</linearGradient>
<linearGradient id="paint3_linear_4112_372" x1="352.127" y1="566" x2="352.127" y2="595.904" gradientUnits="userSpaceOnUse">
<stop stop-color="#316BF9"/>
<stop offset="1" stop-color="#6390FF"/>
</linearGradient>
<linearGradient id="paint4_linear_4112_372" x1="70.498" y1="190.492" x2="70.498" y2="458.875" gradientUnits="userSpaceOnUse">
<stop stop-color="#316BF9"/>
<stop offset="1" stop-color="#6390FF"/>
</linearGradient>
<linearGradient id="paint5_linear_4112_372" x1="210.538" y1="520.656" x2="210.538" y2="544.218" gradientUnits="userSpaceOnUse">
<stop stop-color="#316BF9"/>
<stop offset="1" stop-color="#6390FF"/>
</linearGradient>
<linearGradient id="paint6_linear_4112_372" x1="485.996" y1="467.172" x2="485.996" y2="468.671" gradientUnits="userSpaceOnUse">
<stop stop-color="#316BF9"/>
<stop offset="1" stop-color="#6390FF"/>
</linearGradient>
<linearGradient id="paint7_linear_4112_372" x1="337.37" y1="463.461" x2="337.37" y2="490.017" gradientUnits="userSpaceOnUse">
<stop stop-color="#316BF9"/>
<stop offset="1" stop-color="#6390FF"/>
</linearGradient>
<linearGradient id="paint8_linear_4112_372" x1="276.52" y1="463.539" x2="276.52" y2="486.742" gradientUnits="userSpaceOnUse">
<stop stop-color="#316BF9"/>
<stop offset="1" stop-color="#6390FF"/>
</linearGradient>
<linearGradient id="paint9_linear_4112_372" x1="245.607" y1="468.43" x2="245.607" y2="484.255" gradientUnits="userSpaceOnUse">
<stop stop-color="#316BF9"/>
<stop offset="1" stop-color="#6390FF"/>
</linearGradient>
<linearGradient id="paint10_linear_4112_372" x1="438.826" y1="502.625" x2="438.826" y2="510.479" gradientUnits="userSpaceOnUse">
<stop stop-color="#316BF9"/>
<stop offset="1" stop-color="#6390FF"/>
</linearGradient>
<linearGradient id="paint11_linear_4112_372" x1="600.644" y1="576.188" x2="600.644" y2="607.319" gradientUnits="userSpaceOnUse">
<stop stop-color="#316BF9"/>
<stop offset="1" stop-color="#6390FF"/>
</linearGradient>
<linearGradient id="paint12_linear_4112_372" x1="546.281" y1="546.867" x2="546.281" y2="585.175" gradientUnits="userSpaceOnUse">
<stop stop-color="#316BF9"/>
<stop offset="1" stop-color="#6390FF"/>
</linearGradient>
<linearGradient id="paint13_linear_4112_372" x1="598.608" y1="561.227" x2="598.608" y2="588.925" gradientUnits="userSpaceOnUse">
<stop stop-color="#316BF9"/>
<stop offset="1" stop-color="#6390FF"/>
</linearGradient>
<linearGradient id="paint14_linear_4112_372" x1="548.174" y1="480.438" x2="548.174" y2="520.05" gradientUnits="userSpaceOnUse">
<stop stop-color="#316BF9"/>
<stop offset="1" stop-color="#6390FF"/>
</linearGradient>
<linearGradient id="paint15_linear_4112_372" x1="608.71" y1="255.461" x2="608.71" y2="280.54" gradientUnits="userSpaceOnUse">
<stop stop-color="#316BF9"/>
<stop offset="1" stop-color="#6390FF"/>
</linearGradient>
<linearGradient id="paint16_linear_4112_372" x1="238.101" y1="268.422" x2="238.101" y2="305.948" gradientUnits="userSpaceOnUse">
<stop stop-color="#316BF9"/>
<stop offset="1" stop-color="#6390FF"/>
</linearGradient>
<linearGradient id="paint17_linear_4112_372" x1="305.556" y1="281.914" x2="305.556" y2="291.049" gradientUnits="userSpaceOnUse">
<stop stop-color="#316BF9"/>
<stop offset="1" stop-color="#6390FF"/>
</linearGradient>
<linearGradient id="paint18_linear_4112_372" x1="567.981" y1="275.352" x2="567.981" y2="294.587" gradientUnits="userSpaceOnUse">
<stop stop-color="#316BF9"/>
<stop offset="1" stop-color="#6390FF"/>
</linearGradient>
<linearGradient id="paint19_linear_4112_372" x1="406.197" y1="351.961" x2="406.197" y2="378.698" gradientUnits="userSpaceOnUse">
<stop stop-color="#316BF9"/>
<stop offset="1" stop-color="#6390FF"/>
</linearGradient>
<linearGradient id="paint20_linear_4112_372" x1="559.163" y1="351.336" x2="559.163" y2="361.107" gradientUnits="userSpaceOnUse">
<stop stop-color="#316BF9"/>
<stop offset="1" stop-color="#6390FF"/>
</linearGradient>
<linearGradient id="paint21_linear_4112_372" x1="254.911" y1="351.695" x2="254.911" y2="360.804" gradientUnits="userSpaceOnUse">
<stop stop-color="#316BF9"/>
<stop offset="1" stop-color="#6390FF"/>
</linearGradient>
<linearGradient id="paint22_linear_4112_372" x1="406.227" y1="561.484" x2="406.227" y2="595.064" gradientUnits="userSpaceOnUse">
<stop stop-color="#316BF9"/>
<stop offset="1" stop-color="#6390FF"/>
</linearGradient>
<linearGradient id="paint23_linear_4112_372" x1="434.314" y1="622.602" x2="434.314" y2="837.899" gradientUnits="userSpaceOnUse">
<stop stop-color="#316BF9"/>
<stop offset="1" stop-color="#6390FF"/>
</linearGradient>
<linearGradient id="paint24_linear_4112_372" x1="329.556" y1="577.164" x2="329.556" y2="608.29" gradientUnits="userSpaceOnUse">
<stop stop-color="#316BF9"/>
<stop offset="1" stop-color="#6390FF"/>
</linearGradient>
<linearGradient id="paint25_linear_4112_372" x1="383.921" y1="5.6875" x2="383.921" y2="12.3672" gradientUnits="userSpaceOnUse">
<stop stop-color="#316BF9"/>
<stop offset="1" stop-color="#6390FF"/>
</linearGradient>
</defs>
</svg>
